<?xml version="1.0" encoding="UTF-8" standalone="no"?>
<!DOCTYPE svg PUBLIC "-//W3C//DTD SVG 1.1//EN" "http://www.w3.org/Graphics/SVG/1.1/DTD/svg11.dtd">
<svg width="100%" height="100%" viewBox="0 0 1560 387" version="1.1" xmlns="http://www.w3.org/2000/svg" xmlns:xlink="http://www.w3.org/1999/xlink" xml:space="preserve" xmlns:serif="http://www.serif.com/" style="fill-rule:evenodd;clip-rule:evenodd;stroke-linejoin:round;stroke-miterlimit:2;">
    <g transform="matrix(1,0,0,1,-2036.39,-5740.41)">
        <g transform="matrix(1,0,0,1,-2714.9,-1185)">
            <g id="Youvelop-merged" serif:id="Youvelop merged" transform="matrix(1.63933,0,0,1.63933,4935.06,7187.04)">
                <path d="M-42.176,-3.961C-49.943,0.016 -65.655,0.199 -71.845,-0.413C-99.704,-3.168 -111.863,-24.307 -112.106,-42.418L-112.09,-156.707C-112.09,-157.727 -111.264,-158.554 -110.244,-158.555L-75.735,-158.599C-74.715,-158.601 -73.886,-157.775 -73.885,-156.754L-73.679,-28.101L-73.675,-22.209C-73.675,-13.501 -67.509,-6.443 -58.957,-6.443L-56.739,-6.443C-48.743,-6.443 -42.935,-12.599 -42.213,-20.516L-42.177,-156.754C-42.177,-157.774 -41.349,-158.602 -40.329,-158.602L-5.595,-158.602C-5.105,-158.602 -4.634,-158.407 -4.288,-158.06C-3.941,-157.714 -3.746,-157.243 -3.746,-156.753L-3.779,74.45C-3.779,75.038 -4.061,75.589 -4.537,75.933C-5.013,76.278 -5.626,76.372 -6.183,76.188C-14.439,73.191 -41.207,60.734 -42.176,24.665L-42.176,-3.961ZM124.229,-71.24L124.229,-54.727C124.229,-24.615 99.363,-0.167 68.734,-0.167C66.01,-0.167 63.42,-0.356 60.708,-0.714C57.701,-1.151 55.241,-1.681 52.593,-2.464C29.806,-9.201 13.208,-29.922 13.208,-54.45L13.208,-71.77C13.208,-96.297 29.806,-117.02 52.593,-123.757C53.216,-123.941 54.285,-124.206 55.593,-124.499C56.623,-124.747 58.448,-125.157 59.496,-125.364C60.548,-125.571 64.867,-125.922 65.658,-125.965C66.676,-126.02 67.702,-126.048 68.734,-126.048C69.614,-126.048 73.496,-126.089 76.475,-125.547C78.596,-125.16 80.884,-124.763 82.504,-124.344C83.224,-124.162 83.938,-123.967 84.647,-123.757C85.879,-123.393 87.093,-122.988 88.287,-122.543C98.252,-118.835 106.843,-112.391 113.104,-104.148C120.088,-94.981 124.229,-83.584 124.229,-71.24ZM85.781,-104.089C85.781,-112.795 78.682,-119.853 69.924,-119.853L67.653,-119.853C58.895,-119.853 51.796,-112.795 51.796,-104.089L51.813,-22.22C51.813,-13.513 58.912,-6.455 67.67,-6.455L69.941,-6.455C78.699,-6.455 85.798,-13.513 85.798,-22.22L85.781,-104.089ZM181.612,-0.413C153.687,-2.384 141.627,-25.653 141.576,-43.96L141.598,-124.518C141.598,-125.528 142.416,-126.345 143.425,-126.345L178.211,-126.345C179.221,-126.345 180.039,-125.527 180.039,-124.518L180.043,-22.207C180.043,-13.499 186.209,-6.441 194.761,-6.441L196.979,-6.441C205.531,-6.441 211.581,-12.263 211.581,-20.971L211.585,-124.493C211.585,-125.503 212.404,-126.321 213.413,-126.321L248.188,-126.321C249.197,-126.321 250.016,-125.503 250.016,-124.493L250.016,-2.124C250.016,-1.639 249.823,-1.173 249.479,-0.83C249.136,-0.487 248.67,-0.294 248.185,-0.294L213.412,-0.307C212.402,-0.307 211.584,-1.125 211.582,-2.134L211.575,-6.765C203.356,0.434 190.283,0.199 181.612,-0.413ZM306.152,-4.52C286.675,-12.801 273.003,-32.218 273.003,-54.86L273.003,-124.491C273.003,-124.976 273.196,-125.442 273.539,-125.785C273.882,-126.128 274.348,-126.321 274.833,-126.321L309.6,-126.321C310.085,-126.321 310.551,-126.128 310.894,-125.784C311.238,-125.441 311.43,-124.975 311.43,-124.489L311.335,-20.677C311.702,-13.279 317.96,-6.291 326.135,-6.454L328.256,-6.454C336.23,-6.454 342.264,-12.838 343.056,-20.648C343.056,-20.658 343.056,-20.667 343.056,-20.677L343.152,-107.666L343.153,-107.667C343.5,-127.332 359.312,-143.209 378.867,-143.368L379.752,-143.375C380.24,-143.379 380.709,-143.188 381.056,-142.845C381.402,-142.501 381.597,-142.033 381.597,-141.545L381.597,-60.168C381.534,-54.221 382.106,-47.775 378.926,-38.1C373.392,-20.975 359.745,-7.545 342.585,-2.461C337.731,-0.972 332.572,-0.169 327.225,-0.169C324.681,-0.169 322.383,-0.349 319.732,-0.702C316.598,-1.182 314.621,-1.592 312.148,-2.327C310.092,-2.939 308.091,-3.672 306.152,-4.52ZM442.395,-52.672L442.383,-24.484L442.466,-20.7C442.775,-12.793 449.283,-6.477 457.266,-6.477L459.387,-6.477C467.343,-6.477 473.751,-12.735 474.102,-20.604C474.103,-20.613 474.103,-20.621 474.103,-20.629L474.113,-30.198C474.114,-31.208 474.933,-32.026 475.943,-32.026L504.885,-32.026C505.526,-32.026 506.12,-31.691 506.452,-31.143C506.783,-30.595 506.804,-29.913 506.507,-29.346C506.493,-29.321 506.48,-29.296 506.467,-29.272C502.615,-21.758 497.121,-15.275 490.463,-10.353C486.896,-7.665 482.716,-5.239 477.869,-3.454C474.839,-2.338 472.026,-1.596 469.319,-1.11C465.84,-0.46 462.237,-0.161 458.544,-0.251C458.451,-0.251 458.358,-0.251 458.264,-0.251C455.72,-0.251 453.02,-0.444 450.501,-0.802C449.778,-0.905 449.048,-1.029 448.322,-1.168C446.399,-1.525 444.512,-1.982 442.664,-2.54C441.405,-2.911 440.15,-3.345 438.93,-3.821C418.544,-11.666 404.062,-31.555 404.062,-54.86L404.062,-72.282C404.062,-96.954 420.294,-117.799 442.577,-124.576C442.86,-124.663 446.31,-125.456 449.745,-125.847C453.697,-126.297 457.714,-126.345 458.254,-126.345C459.114,-126.345 502.143,-126.321 502.143,-126.321C507.935,-126.321 512.63,-121.587 512.63,-115.747L512.63,-104.655L512.628,-104.65C512.341,-74.608 488.134,-50.307 458.358,-50.307C455.695,-50.307 453.075,-50.501 450.514,-50.877C450.531,-50.867 450.548,-50.858 450.565,-50.848C447.83,-51.242 445.162,-51.83 442.573,-52.617C442.514,-52.635 442.454,-52.653 442.395,-52.672ZM474.129,-72.283L474.085,-105.036C474.085,-113.216 467.454,-119.848 459.273,-119.848L457.152,-119.848C449.074,-119.848 442.539,-113.382 442.377,-105.343L442.42,-72.292C442.42,-63.534 448.753,-56.435 457.318,-56.435L459.539,-56.435C468.104,-56.435 474.129,-63.525 474.129,-72.283ZM535.293,-53.845C535.274,-54.725 535.272,-55.619 535.289,-56.525L535.305,-157.769C535.305,-158.78 536.124,-159.599 537.135,-159.599L571.922,-159.599C572.933,-159.599 573.752,-158.78 573.752,-157.769L573.781,-27.783C573.962,-19.929 576.594,-10.805 583.513,-3.574C583.968,-3.113 584.075,-2.411 583.778,-1.835C583.481,-1.259 582.848,-0.939 582.208,-1.042C582.203,-1.015 582.202,-1.016 582.201,-1.016C579.008,-1.51 576.191,-2.155 574.452,-2.771C573.9,-2.94 573.353,-3.117 572.809,-3.301C563.967,-6.232 556.84,-10.961 551.374,-16.346C547.21,-20.404 543.727,-25.096 541.078,-30.274C538.921,-34.425 537.32,-38.9 536.353,-43.804C535.698,-47.048 535.335,-50.403 535.293,-53.845ZM708.96,-71.35L708.96,-54.838C708.96,-24.725 684.094,-0.277 653.466,-0.277C650.742,-0.277 648.064,-0.471 645.444,-0.844C645.462,-0.835 645.479,-0.825 645.496,-0.815C642.7,-1.207 639.972,-1.792 637.324,-2.574C614.537,-9.311 597.94,-30.033 597.94,-54.561L597.94,-71.88C597.94,-96.408 614.537,-117.13 637.324,-123.867C637.948,-124.051 639.017,-124.317 640.324,-124.61C641.354,-124.857 643.18,-125.267 644.228,-125.474C645.28,-125.682 649.599,-126.032 650.389,-126.075C651.408,-126.13 652.433,-126.158 653.466,-126.158C654.346,-126.158 658.228,-126.199 661.206,-125.657C663.328,-125.271 665.615,-124.873 667.236,-124.454C667.956,-124.273 668.67,-124.077 669.378,-123.868C670.61,-123.504 671.824,-123.098 673.018,-122.654C682.984,-118.945 691.575,-112.501 697.835,-104.258C704.819,-95.091 708.96,-83.695 708.96,-71.35ZM670.52,-104.058C670.52,-112.764 663.42,-119.822 654.662,-119.822L652.391,-119.822C643.633,-119.822 636.534,-112.764 636.534,-104.058L636.544,-22.33C636.544,-13.623 643.644,-6.566 652.401,-6.566L654.672,-6.566C663.43,-6.566 670.53,-13.623 670.53,-22.33L670.52,-104.058ZM784.699,0.222L768.864,0.222L768.868,24.9C768.352,60.099 741.151,72.948 732.785,76.071C732.228,76.262 731.613,76.172 731.133,75.83C730.654,75.487 730.369,74.935 730.369,74.345C730.364,52.363 730.364,-105.307 730.364,-124.101C730.364,-125.112 731.183,-125.931 732.194,-125.931L768.279,-125.931C771.529,-126.012 784.385,-125.885 784.699,-125.885C785.561,-125.885 789.36,-125.926 792.275,-125.383C794.352,-124.996 796.59,-124.598 798.176,-124.178C798.881,-123.996 799.58,-123.8 800.273,-123.59C801.479,-123.226 802.667,-122.82 803.836,-122.374C804.606,-122.081 805.368,-121.77 806.121,-121.443C814.909,-117.635 822.492,-111.566 828.138,-103.969C834.971,-94.802 839.023,-83.406 839.023,-71.061L839.023,-71.018L839.023,-54.549L839.023,-54.506C839.023,-52.338 838.897,-50.198 838.651,-48.095C835.525,-20.911 812.545,0.222 784.699,0.222ZM768.868,-104.239L768.787,-21.761C768.925,-13.177 775.101,-6.324 783.576,-6.324L785.799,-6.324C794.37,-6.324 800.507,-13.385 800.507,-22.107L800.588,-104.188C800.514,-112.837 794.4,-119.831 785.881,-119.831L783.658,-119.831C775.172,-119.831 768.991,-112.841 768.868,-104.239Z"/>
            </g>
        </g>
    </g>
</svg>
