<svg width="1560" height="387" viewBox="0 0 1560 387" fill="none" xmlns="http://www.w3.org/2000/svg">
<path fill-rule="evenodd" clip-rule="evenodd" d="M114.64 255.146C101.908 261.666 76.1505 261.966 66.003 260.963C20.3329 256.446 0.40031 221.792 0.00195312 192.103C0.00195312 192.103 0.0249144 29.0893 0.028193 4.74521C0.028193 3.07309 1.38227 1.71738 3.05438 1.71574C13.651 1.70099 49.0228 1.65671 59.626 1.6436C61.2981 1.64032 62.6571 2.99441 62.6588 4.66817C62.7014 30.6892 62.9965 215.573 62.9965 215.573L63.003 225.232C63.003 239.507 73.1112 251.077 87.1307 251.077H90.7667C103.875 251.077 113.396 240.986 114.58 228.007C114.58 228.007 114.632 31.5319 114.639 4.66817C114.639 2.99605 115.996 1.63867 117.668 1.63867H174.609C175.412 1.63867 176.184 1.95835 176.751 2.5272C177.32 3.09441 177.64 3.86652 177.64 4.66979C177.635 38.4793 177.591 344.546 177.586 383.688C177.586 384.652 177.123 385.555 176.343 386.119C175.563 386.684 174.558 386.839 173.645 386.537C160.11 381.624 116.229 361.203 114.64 302.074V255.146Z" fill="white"/>
<path fill-rule="evenodd" clip-rule="evenodd" d="M387.436 144.856V171.925C387.436 221.289 346.672 261.366 296.462 261.366C291.996 261.366 287.749 261.057 283.304 260.47C278.373 259.754 274.341 258.884 270 257.602C232.645 246.557 205.436 212.588 205.436 172.378V143.985C205.436 103.777 232.645 69.8064 270 58.7619C271.021 58.4604 272.776 58.0253 274.918 57.5445C276.606 57.1404 279.599 56.4673 281.317 56.1283C283.041 55.7877 290.122 55.2124 291.418 55.1423C293.087 55.0527 294.769 55.0071 296.462 55.0071C297.905 55.0071 304.268 54.9386 309.15 55.8284C312.629 56.4608 316.379 57.1126 319.035 57.7988C320.215 58.097 321.386 58.418 322.547 58.7619C324.567 59.3584 326.556 60.0217 328.514 60.7518C344.851 66.8305 358.934 77.3943 369.198 90.9077C380.646 105.935 387.436 124.618 387.436 144.856ZM324.408 91.0055C324.408 76.7326 312.769 65.1617 298.412 65.1617H294.689C280.332 65.1617 268.693 76.7326 268.693 91.0055L268.722 225.215C268.722 239.487 280.359 251.058 294.717 251.058H298.439C312.797 251.058 324.434 239.487 324.434 225.215L324.408 91.0055Z" fill="white"/>
<path fill-rule="evenodd" clip-rule="evenodd" d="M481.503 260.959C435.725 257.728 415.956 219.582 415.871 189.572C415.871 189.572 415.902 77.3964 415.907 57.5097C415.909 55.8556 417.25 54.5146 418.904 54.5146C429.523 54.5146 465.308 54.5146 475.93 54.5146C477.584 54.5146 478.926 55.8556 478.926 57.5113C478.926 80.2866 478.931 225.231 478.931 225.231C478.931 239.506 489.039 251.077 503.061 251.077H506.695C520.716 251.077 530.632 241.533 530.632 227.257C530.632 227.257 530.639 80.4784 530.641 57.5507C530.641 55.8966 531.982 54.5556 533.636 54.5556C544.255 54.5556 580.025 54.5556 590.645 54.5556C592.299 54.5556 593.64 55.8966 593.64 57.5507C593.64 80.9931 593.64 234.693 593.64 258.154C593.64 258.949 593.324 259.713 592.761 260.275C592.199 260.837 591.435 261.154 590.64 261.154C580.014 261.151 544.249 261.137 533.634 261.133C531.98 261.133 530.639 259.793 530.636 258.137C530.631 255.008 530.623 250.547 530.623 250.547C517.149 262.349 495.72 261.962 481.503 260.959Z" fill="white"/>
<path fill-rule="evenodd" clip-rule="evenodd" d="M685.662 254.223C653.735 240.648 631.322 208.817 631.322 171.699V57.551C631.322 56.7559 631.637 55.9936 632.201 55.4297C632.762 54.8674 633.525 54.551 634.322 54.551C644.943 54.551 680.69 54.551 691.316 54.551C692.112 54.551 692.875 54.8674 693.438 55.4313C694 55.9952 694.316 56.7575 694.315 57.5542C694.295 80.5409 694.16 227.736 694.16 227.736C694.763 239.866 705.021 251.321 718.422 251.053H721.899C734.971 251.053 744.862 240.587 746.161 227.784C746.161 227.769 746.161 227.753 746.161 227.736L746.318 85.1327C746.888 52.8953 772.81 26.866 804.868 26.6053C804.868 26.6053 805.515 26.6004 806.319 26.5939C807.119 26.5873 807.889 26.9004 808.455 27.4643C809.023 28.0266 809.343 28.7938 809.343 29.5938V162.998C809.241 172.747 810.178 183.314 804.965 199.176C795.892 227.249 773.52 249.266 745.39 257.598C737.432 260.041 728.974 261.356 720.209 261.356C716.037 261.356 712.271 261.061 707.927 260.482C702.789 259.695 699.547 259.023 695.493 257.818C692.123 256.816 688.841 255.613 685.662 254.223Z" fill="white"/>
<path fill-rule="evenodd" clip-rule="evenodd" d="M909.013 175.287L908.993 221.496L909.13 227.699C909.637 240.662 920.304 251.016 933.393 251.016H936.869C949.911 251.016 960.417 240.757 960.991 227.857C960.993 227.842 960.993 227.829 960.995 227.816C960.995 227.816 961.004 217.409 961.009 212.129C961.011 210.473 962.354 209.132 964.011 209.132C973.093 209.132 1000.37 209.132 1011.46 209.132C1012.51 209.132 1013.48 209.682 1014.02 210.58C1014.57 211.478 1014.6 212.596 1014.11 213.526C1014.09 213.567 1014.07 213.608 1014.05 213.647C1007.73 225.965 998.727 236.593 987.813 244.662C981.965 249.068 975.113 253.045 967.166 255.971C962.199 257.801 957.588 259.016 953.152 259.814C947.448 260.879 941.541 261.37 935.488 261.222C935.335 261.222 935.181 261.222 935.028 261.222C930.858 261.222 926.431 260.906 922.301 260.319C921.116 260.15 919.921 259.947 918.731 259.719C915.578 259.134 912.484 258.384 909.455 257.47C907.39 256.861 905.334 256.15 903.332 255.37C869.914 242.509 846.174 209.904 846.174 171.7V143.139C846.174 102.694 872.782 68.5221 909.312 57.4124C909.777 57.2697 915.432 55.9697 921.062 55.3288C927.541 54.5911 934.126 54.5107 935.01 54.5107C936.422 54.5107 1006.96 54.5517 1006.96 54.5517C1016.46 54.5517 1024.15 62.3123 1024.15 71.886V90.0694L1024.15 90.0776C1023.68 139.326 983.996 179.164 935.183 179.164C930.816 179.164 926.522 178.846 922.324 178.229C922.351 178.246 922.379 178.26 922.407 178.277C917.923 177.631 913.549 176.667 909.306 175.377C909.208 175.347 909.11 175.318 909.013 175.287ZM961.037 143.138L960.964 89.4449C960.964 76.0351 950.093 65.1631 936.683 65.1631H933.206C919.963 65.1631 909.25 75.763 908.984 88.9416L909.055 143.123C909.055 157.48 919.436 169.118 933.477 169.118H937.119C951.158 169.118 961.037 157.495 961.037 143.138Z" fill="white"/>
<path fill-rule="evenodd" clip-rule="evenodd" d="M1061.31 173.368C1061.27 171.923 1061.27 170.459 1061.3 168.973C1061.3 168.973 1061.32 25.6558 1061.32 3.00193C1061.32 1.34456 1062.67 0.00195312 1064.32 0.00195312H1121.35C1123.01 0.00195312 1124.35 1.34456 1124.35 3.00193C1124.36 29.0574 1124.4 216.092 1124.4 216.092C1124.7 228.966 1129.01 243.924 1140.35 255.778C1141.1 256.534 1141.27 257.685 1140.79 258.629C1140.3 259.573 1139.26 260.098 1138.21 259.929C1138.21 259.972 1138.2 259.972 1138.2 259.972C1132.97 259.162 1128.35 258.105 1125.5 257.095C1124.59 256.818 1123.7 256.528 1122.81 256.226C1108.31 251.421 1096.63 243.669 1087.67 234.841C1080.84 228.187 1075.13 220.495 1070.79 212.008C1067.25 205.203 1064.63 197.866 1063.04 189.828C1061.97 184.51 1061.38 179.01 1061.31 173.368Z" fill="white"/>
<path fill-rule="evenodd" clip-rule="evenodd" d="M1346.01 144.664V171.734C1346.01 221.097 1305.24 261.175 1255.03 261.175C1250.57 261.175 1246.18 260.859 1241.88 260.246C1241.91 260.262 1241.94 260.277 1241.97 260.293C1237.38 259.651 1232.91 258.693 1228.57 257.41C1191.22 246.366 1164.01 212.396 1164.01 172.187V143.794C1164.01 103.586 1191.22 69.615 1228.57 58.5705C1229.59 58.269 1231.35 57.8339 1233.49 57.3531C1235.18 56.9489 1238.17 56.2759 1239.89 55.9369C1241.61 55.5963 1248.69 55.021 1249.99 54.9509C1251.66 54.8613 1253.34 54.8157 1255.03 54.8157C1256.48 54.8157 1262.84 54.7472 1267.72 55.637C1271.2 56.2694 1274.95 56.9212 1277.61 57.6073C1278.79 57.9056 1279.96 58.2266 1281.12 58.5705C1283.14 59.167 1285.13 59.8303 1287.08 60.5604C1303.42 66.6391 1317.5 77.2029 1327.77 90.7163C1339.22 105.744 1346.01 124.427 1346.01 144.664ZM1282.99 91.0439C1282.99 76.7726 1271.35 65.2017 1256.99 65.2017H1253.27C1238.91 65.2017 1227.28 76.7726 1227.28 91.0439L1227.29 225.023C1227.29 239.296 1238.93 250.867 1253.29 250.867H1257.01C1271.37 250.867 1283 239.296 1283 225.023L1282.99 91.0439Z" fill="white"/>
<path fill-rule="evenodd" clip-rule="evenodd" d="M1470.16 262.004C1467.57 262.004 1444.2 262.004 1444.2 262.004L1444.21 302.459C1443.37 360.163 1398.77 381.227 1385.06 386.345C1384.15 386.66 1383.14 386.512 1382.35 385.951C1381.56 385.389 1381.1 384.483 1381.1 383.516C1381.09 347.479 1381.09 89.0055 1381.09 58.1964C1381.09 56.539 1382.43 55.1961 1384.09 55.1961C1396.51 55.1961 1443.25 55.1961 1443.25 55.1961C1448.57 55.0641 1469.65 55.2727 1470.16 55.2727C1471.58 55.2727 1477.8 55.2043 1482.58 56.0957C1485.99 56.7297 1489.66 57.3832 1492.26 58.0709C1493.41 58.3691 1494.56 58.6902 1495.69 59.034C1497.67 59.6321 1499.62 60.297 1501.53 61.0271C1502.8 61.5079 1504.05 62.018 1505.28 62.5541C1519.69 68.7958 1532.12 78.745 1541.37 91.2006C1552.58 106.228 1559.22 124.911 1559.22 145.146L1559.22 145.216V172.215L1559.22 172.285C1559.22 175.841 1559.01 179.348 1558.61 182.795C1553.48 227.36 1515.81 262.004 1470.16 262.004ZM1444.21 90.7574L1444.08 225.967C1444.31 240.039 1454.43 251.273 1468.32 251.273H1471.97C1486.02 251.273 1496.08 239.699 1496.08 225.4L1496.21 90.8405C1496.09 76.6623 1486.07 65.1975 1472.1 65.1975H1468.46C1454.55 65.1975 1444.41 76.6541 1444.21 90.7574Z" fill="white"/>
</svg>
